<svg width="1920" height="803" viewBox="0 0 1920 803" fill="none" xmlns="http://www.w3.org/2000/svg">
<rect y="0.00012207" width="1920" height="746" fill="#FFF9F9" fill-opacity="0.46"/>
<path opacity="0.5" fill-rule="evenodd" clip-rule="evenodd" d="M704.147 674.312C721.349 674.312 742.354 675.798 742.354 693C742.354 710.202 721.349 736.605 704.147 736.605C686.945 736.605 673 722.661 673 705.458C673 688.256 686.945 674.312 704.147 674.312Z" fill="#7C7ED5"/>
<path opacity="0.5" fill-rule="evenodd" clip-rule="evenodd" d="M1587.15 375.999C1604.35 375.999 1625.35 377.485 1625.35 394.688C1625.35 411.89 1604.35 438.293 1587.15 438.293C1569.94 438.293 1556 424.348 1556 407.146C1556 389.945 1569.94 375.999 1587.15 375.999Z" fill="#F4F6FA"/>
<path opacity="0.5" fill-rule="evenodd" clip-rule="evenodd" d="M142.147 103.207C159.349 103.207 180.354 104.692 180.354 121.895C180.354 139.097 159.349 165.5 142.147 165.5C124.945 165.5 111 151.555 111 134.353C111 117.151 124.945 103.207 142.147 103.207Z" fill="#3639A4"/>
<path opacity="0.5" fill-rule="evenodd" clip-rule="evenodd" d="M1730.23 473.39C1668.1 365.774 1601.53 228.999 1709.14 166.866C1816.76 104.734 2057.81 140.774 2119.94 248.39C2182.07 356.006 2145.2 493.613 2037.59 555.745C1929.97 617.877 1792.36 581.006 1730.23 473.39Z" fill="#94F8FF"/>
<path opacity="0.5" fill-rule="evenodd" clip-rule="evenodd" d="M-147 351.999C-22.736 351.999 129 362.735 129 486.999C129 611.264 -22.736 801.999 -147 801.999C-271.264 801.999 -372 701.263 -372 576.999C-372 452.736 -271.264 351.999 -147 351.999Z" fill="#FFDEDC"/>
</svg>
