<svg width="20" height="16" viewBox="0 0 20 16" fill="none" xmlns="http://www.w3.org/2000/svg">
<path fill-rule="evenodd" clip-rule="evenodd" d="M19.6927 8.7793L13.1314 15.6759C12.9258 15.8919 12.6558 16 12.3861 16C12.1171 16 11.8482 15.8927 11.6427 15.6778C11.2311 15.2474 11.2303 14.549 11.6408 14.1175L16.4108 9.10343H1.05264C0.471317 9.10343 0 8.60936 0 7.99998C0 7.3906 0.471317 6.89653 1.05264 6.89653H16.4108L11.6408 1.88273C11.2303 1.45128 11.2311 0.75252 11.6427 0.322174C12.0543 -0.108172 12.7208 -0.107344 13.1314 0.324381L19.6927 7.22095C20.1024 7.65157 20.1024 8.3484 19.6927 8.7793Z" fill="white"/>
</svg>
