<svg width="50" height="45" viewBox="0 0 50 45" fill="none" xmlns="http://www.w3.org/2000/svg">
<path d="M35.45 -4.28522e-05C34.928 0.0116019 34.4221 0.182579 34 0.489957C24.15 7.52996 12 8.99996 4.81 8.99996H2.54C1.86808 8.99995 1.22353 9.26618 0.747475 9.74037C0.271419 10.2145 0.00264536 10.858 0 11.53L0 22.1C0 22.7736 0.267606 23.4197 0.743949 23.896C1.22029 24.3724 1.86635 24.64 2.54 24.64H2.66C3.31 24.64 4.03 24.59 4.81 24.59H4.91L6.6 41C6.71102 42.0476 7.2054 43.0172 7.98809 43.7223C8.77078 44.4275 9.78651 44.8184 10.84 44.82H17.28C17.8755 44.8204 18.4644 44.6956 19.0085 44.4538C19.5527 44.212 20.04 43.8586 20.4388 43.4164C20.8376 42.9742 21.1391 42.4532 21.3236 41.887C21.5082 41.3208 21.5716 40.7222 21.51 40.13L20.13 26.68C25.0949 28.0025 29.7893 30.1856 34 33.13C34.435 33.4501 34.9599 33.6251 35.5 33.63C36.1667 33.6195 36.8025 33.3472 37.2702 32.872C37.738 32.3968 38.0001 31.7567 38 31.09V2.53996C38.0013 2.20518 37.9362 1.87347 37.8084 1.56405C37.6806 1.25463 37.4927 0.973644 37.2555 0.737387C37.0183 0.501129 36.7366 0.314294 36.4267 0.187709C36.1167 0.0611249 35.7848 -0.00269197 35.45 -4.28522e-05ZM16.45 39.81H11.45L10 24.83C11.58 24.98 13.27 25.19 15 25.51L16.45 39.81ZM33 26.6C22.1 20.4 10.17 19.6 5 19.6V14C10.17 14 22.1 13.18 33 6.99996V26.6Z" fill="#3639A4"/>
<path d="M41.0001 10.82C41.0009 11.3112 41.1464 11.7914 41.4185 12.2005C41.6907 12.6095 42.0773 12.9293 42.5301 13.12C43.2607 13.4229 43.8851 13.9356 44.3243 14.5932C44.7636 15.2509 44.9981 16.0241 44.9981 16.815C44.9981 17.6058 44.7636 18.379 44.3243 19.0367C43.8851 19.6944 43.2607 20.207 42.5301 20.51C42.0757 20.6984 41.6876 21.0177 41.4152 21.4272C41.1427 21.8368 40.9983 22.3181 41.0001 22.81C40.9971 23.2162 41.0935 23.6169 41.281 23.9773C41.4684 24.3377 41.7412 24.6468 42.0755 24.8775C42.4098 25.1083 42.7955 25.2538 43.1989 25.3013C43.6024 25.3487 44.0113 25.2968 44.3901 25.15C46.05 24.4766 47.4713 23.3233 48.4719 21.8375C49.4726 20.3518 50.0071 18.6013 50.0071 16.81C50.0071 15.0187 49.4726 13.2681 48.4719 11.7824C47.4713 10.2966 46.05 9.14327 44.3901 8.46995C44.0105 8.32533 43.6013 8.27539 43.1981 8.32446C42.7948 8.37352 42.4096 8.52011 42.0757 8.75155C41.7419 8.98298 41.4695 9.29228 41.282 9.65268C41.0946 10.0131 40.9978 10.4137 41.0001 10.82Z" fill="#45DBE6"/>
</svg>
