<svg width="50" height="43" viewBox="0 0 50 43" fill="none" xmlns="http://www.w3.org/2000/svg">
<path d="M45.4802 4.00004C42.8924 1.42551 39.3906 -0.0197398 35.7402 -0.0197398C32.0899 -0.0197398 28.588 1.42551 26.0002 4.00004L24.6802 5.32004L23.4002 4.00004C20.8125 1.41391 17.3037 -0.0388184 13.6452 -0.0388184C9.98675 -0.0388184 6.47799 1.41391 3.89024 4.00004C-1.47976 9.37004 -1.19976 18.44 4.17024 23.81L5.17024 24.81L21.9402 41.62C22.6676 42.3455 23.6529 42.7529 24.6802 42.7529C25.7075 42.7529 26.6929 42.3455 27.4202 41.62L44.2002 24.84L45.2002 23.84C50.5602 18.48 50.8502 9.41004 45.4802 4.00004ZM44.4802 14.33C44.2998 16.558 43.3153 18.6443 41.7102 20.2L40.6602 21.3L24.6602 37.3L8.66024 21.3L7.64024 20.24C6.03224 18.6853 5.04423 16.5991 4.86024 14.37C4.77643 13.1196 4.96068 11.8657 5.40064 10.6922C5.8406 9.51876 6.52613 8.4528 7.41135 7.56569C8.29658 6.67857 9.36107 5.99076 10.5336 5.54829C11.7061 5.10583 12.9596 4.9189 14.2102 5.00004C16.4433 5.18486 18.5314 6.18088 20.0802 7.80004L21.1502 8.86003L23.0002 10.71L25.6402 13.35C25.8832 13.5923 26.1715 13.7844 26.4886 13.9153C26.8058 14.0461 27.1457 14.1133 27.4888 14.1128C27.8319 14.1123 28.1715 14.0443 28.4884 13.9126C28.8052 13.7808 29.0929 13.588 29.3352 13.345C29.5775 13.1021 29.7696 12.8138 29.9005 12.4966C30.0313 12.1795 30.0985 11.8396 30.098 11.4965C30.0975 11.1534 30.0295 10.8137 29.8978 10.4969C29.766 10.1801 29.5732 9.89232 29.3302 9.65003L28.3802 8.65003L29.5002 7.58004C30.7654 6.31669 32.3854 5.4687 34.1445 5.14895C35.9036 4.82921 37.7184 5.05288 39.3472 5.7902C40.9761 6.52751 42.3417 7.74349 43.2622 9.27623C44.1828 10.809 44.6146 12.5858 44.5002 14.37L44.4802 14.33Z" fill="#3639A4"/>
<path d="M15.7056 15.4886C14.7293 14.5123 13.1464 14.5123 12.1701 15.4886C11.1938 16.4649 11.1938 18.0478 12.1701 19.0241L16.6532 23.5072C17.6295 24.4835 19.2124 24.4835 20.1887 23.5072C21.165 22.5309 21.165 20.9479 20.1887 19.9716L15.7056 15.4886Z" fill="#45DBE6"/>
</svg>
