<svg width="38" height="50" viewBox="0 0 38 50" fill="none" xmlns="http://www.w3.org/2000/svg">
<path d="M11 22.5V13.32C10.964 11.2444 11.7156 9.23231 13.1034 7.6886C14.4913 6.1449 16.4123 5.18423 18.48 4.99997C19.5735 4.92874 20.6699 5.08292 21.7014 5.45294C22.7328 5.82296 23.6773 6.40093 24.4761 7.15102C25.2749 7.90111 25.9112 8.80732 26.3453 9.81345C26.7795 10.8196 27.0023 11.9042 27 13V21H5.85C4.29848 21 2.81051 21.6163 1.71343 22.7134C0.616337 23.8105 0 25.2985 0 26.85L0 44.15C0 45.7015 0.616337 47.1895 1.71343 48.2865C2.81051 49.3836 4.29848 50 5.85 50H32.15C33.7015 50 35.1895 49.3836 36.2866 48.2865C37.3837 47.1895 38 45.7015 38 44.15V26.85C38 25.2985 37.3837 23.8105 36.2866 22.7134C35.1895 21.6163 33.7015 21 32.15 21H32V13C32.0018 11.242 31.647 9.50189 30.9571 7.88493C30.2673 6.26797 29.2566 4.80773 27.9862 3.59253C26.7159 2.37733 25.2122 1.43241 23.5663 0.814912C21.9203 0.197419 20.1662 -0.0798179 18.41 -3.13967e-05C15.0191 0.219944 11.8419 1.73231 9.533 4.22537C7.22412 6.71844 5.95958 10.0022 6 13.4V22.5H11ZM33 44.15C33 44.2616 32.978 44.3721 32.9353 44.4753C32.8926 44.5784 32.83 44.6721 32.751 44.751C32.6721 44.8299 32.5784 44.8926 32.4753 44.9353C32.3722 44.978 32.2616 45 32.15 45H5.85C5.62457 45 5.40836 44.9104 5.24896 44.751C5.08955 44.5916 5 44.3754 5 44.15V26.85C5 26.6245 5.08955 26.4083 5.24896 26.2489C5.40836 26.0895 5.62457 26 5.85 26H32.15C32.2616 26 32.3722 26.022 32.4753 26.0647C32.5784 26.1074 32.6721 26.17 32.751 26.2489C32.83 26.3279 32.8926 26.4216 32.9353 26.5247C32.978 26.6278 33 26.7383 33 26.85V44.15Z" fill="#3639A4"/>
<path d="M21.5 33.5C21.5 32.1193 20.3807 31 19 31C17.6193 31 16.5 32.1193 16.5 33.5V37.5C16.5 38.8807 17.6193 40 19 40C20.3807 40 21.5 38.8807 21.5 37.5V33.5Z" fill="#45DBE6"/>
</svg>
