<svg width="53" height="50" viewBox="0 0 53 50" fill="none" xmlns="http://www.w3.org/2000/svg">
<path d="M28.2314 27.62L37.7051 22.73C37.9981 22.5565 38.2521 22.3298 38.4526 22.0628C38.6531 21.7958 38.7961 21.4938 38.8733 21.1742C38.9506 20.8545 38.9606 20.5235 38.9029 20.2002C38.8451 19.8769 38.7207 19.5675 38.5367 19.29C38.1677 18.7283 37.5792 18.3286 36.9003 18.1786C36.2215 18.0287 35.5077 18.1406 34.9157 18.49L25.442 23.38C25.1481 23.5527 24.8931 23.7788 24.6916 24.0455C24.4901 24.3121 24.3461 24.6139 24.2678 24.9336C24.1896 25.2533 24.1786 25.5846 24.2356 25.9083C24.2926 26.2321 24.4164 26.5419 24.5999 26.82C24.7816 27.1005 25.0202 27.344 25.3017 27.5363C25.5832 27.7286 25.9021 27.8659 26.2398 27.9403C26.5776 28.0148 26.9276 28.0248 27.2694 27.9698C27.6113 27.9148 27.9383 27.7959 28.2314 27.62Z" fill="#45DBE6"/>
<path d="M26.3158 0C21.111 0 16.0231 1.46622 11.6955 4.21326C7.36792 6.96029 3.99496 10.8648 2.00318 15.4329C0.0114022 20.0011 -0.509738 25.0277 0.505662 29.8773C1.52106 34.7268 4.0274 39.1814 7.70773 42.6777C11.3881 46.174 16.0771 48.555 21.1818 49.5196C26.2866 50.4843 31.5778 49.9892 36.3864 48.097C41.195 46.2048 45.305 43.0005 48.1966 38.8893C51.0882 34.778 52.6316 29.9445 52.6316 25C52.6316 18.3696 49.859 12.0107 44.9239 7.32233C39.9887 2.63392 33.2952 0 26.3158 0V0ZM26.3158 45C22.152 45 18.0817 43.827 14.6196 41.6294C11.1575 39.4318 8.45913 36.3082 6.86571 32.6537C5.27228 28.9991 4.85537 24.9778 5.66769 21.0982C6.48001 17.2186 8.48508 13.6549 11.4293 10.8579C14.3736 8.06081 18.1248 6.156 22.2086 5.38429C26.2924 4.61259 30.5254 5.00866 34.3723 6.52241C38.2192 8.03616 41.5071 10.5996 43.8204 13.8886C46.1337 17.1776 47.3684 21.0444 47.3684 25C47.3684 30.3043 45.1504 35.3914 41.2023 39.1421C37.2541 42.8929 31.8993 45 26.3158 45Z" fill="#3639A4"/>
<path d="M17.7056 13.6999C17.1874 13.2798 16.5178 13.0669 15.8377 13.1062C15.1576 13.1454 14.5201 13.4337 14.0592 13.9104C13.5983 14.3871 13.35 15.0151 13.3665 15.6622C13.383 16.3092 13.6631 16.925 14.1477 17.3799L25.0635 27.3799C25.3151 27.6161 25.6142 27.8016 25.9429 27.9255C26.2717 28.0493 26.6233 28.109 26.9769 28.1008C27.3304 28.0927 27.6786 28.0169 28.0007 27.8781C28.3227 27.7392 28.612 27.5401 28.8512 27.2927C29.0904 27.0452 29.2747 26.7545 29.393 26.4379C29.5114 26.1213 29.5613 25.7853 29.5398 25.4499C29.5184 25.1146 29.426 24.7868 29.2682 24.4861C29.1104 24.1854 28.8904 23.918 28.6214 23.6999L17.7056 13.6999Z" fill="#3639A4"/>
</svg>
