<svg width="26" height="29" viewBox="0 0 26 29" fill="none" xmlns="http://www.w3.org/2000/svg">
<path fill-rule="evenodd" clip-rule="evenodd" d="M20.0131 24.5758L19.9964 17.8449C19.9423 17.6007 19.5944 16.5117 17.7033 16.2142L17.7278 26.2105C19.637 25.9021 19.9659 24.7974 20.0131 24.5758ZM22.1121 17.7498L22.1287 24.6225C22.129 24.663 22.1266 24.6718 22.1221 24.7126C21.9797 25.9639 20.6579 28.2788 16.6745 28.2788H16.6721C16.0886 28.2788 15.6155 27.8764 15.614 27.2932L15.5837 15.0954C15.5831 14.8146 15.6938 14.557 15.8918 14.3581C16.0898 14.1592 16.3589 14.0697 16.6394 14.0697H16.6636C20.6286 14.0697 21.9567 16.4054 22.1045 17.6555C22.1097 17.696 22.1118 17.709 22.1121 17.7498ZM8.33704 16.2139C6.42606 16.5138 6.09199 17.6206 6.04392 17.8425L6.0273 24.5731C6.08081 24.8171 6.42304 25.9049 8.31225 26.2102L8.33704 16.2139ZM10.1473 14.3421C10.3453 14.541 10.4563 14.771 10.4554 15.0516L10.4251 27.2872C10.4236 27.8707 9.95019 28.2788 9.36701 28.2788H9.36459C5.3812 28.2788 4.05945 25.9669 3.91705 24.7153C3.91252 24.6748 3.9101 24.7008 3.9104 24.6603L3.92733 17.7659C3.92733 17.725 3.92975 17.696 3.93459 17.6555C4.08273 16.4054 5.41143 14.0697 9.37548 14.0697H9.39996C9.68052 14.0697 9.94928 14.1431 10.1473 14.3421ZM26.0002 13.7041L25.9817 21.3659C25.9799 22.0325 25.4388 22.5346 24.7724 22.5346H24.7694C24.1016 22.5346 23.5613 22.0276 23.5632 21.3598L23.5816 13.7168C23.5886 10.9122 22.4963 8.27229 20.5058 6.28362C18.5138 4.29313 15.8606 3.19298 13.0354 3.18603H13.0094C7.19182 3.18603 2.45202 7.87746 2.43811 13.6615L2.41907 21.3371C2.41756 22.0041 1.8764 22.5346 1.20978 22.5346H1.20676C0.539229 22.5346 -0.00102016 21.9992 0.000491446 21.3314L0.0195377 13.66C0.0367701 6.54453 5.8613 0.767456 13.0091 0.767456H13.0411C16.51 0.775921 19.7681 2.1273 22.2154 4.57278C24.6645 7.02008 26.0086 10.2507 26.0002 13.7041Z" fill="#3639A4"/>
</svg>
