<svg width="31" height="24" viewBox="0 0 31 24" fill="none" xmlns="http://www.w3.org/2000/svg">
<path fill-rule="evenodd" clip-rule="evenodd" d="M25.1247 10.3533C25.1247 8.87175 23.9178 7.66657 22.4346 7.66657C22.0708 7.66657 21.7182 7.73771 21.3866 7.87794C20.8694 8.09675 20.2732 7.85456 20.0551 7.33768C19.8366 6.82045 20.0784 6.22464 20.5953 6.00616C21.1786 5.75924 21.7974 5.63425 22.4346 5.63425C25.0387 5.63425 27.157 7.75126 27.157 10.3533C27.157 12.9554 25.0387 15.0724 22.4346 15.0724C21.0827 15.0724 19.7932 14.4915 18.8966 13.479C18.5247 13.0587 18.5637 12.4165 18.984 12.0445C19.4037 11.6726 20.0463 11.7116 20.4182 12.1319C20.9293 12.7091 21.6643 13.04 22.4346 13.04C23.9178 13.04 25.1247 11.8349 25.1247 10.3533ZM30.8234 19.3209C30.8234 19.8822 30.3685 20.3232 29.8072 20.3232H25.2796C24.7183 20.3232 24.2634 19.8679 24.2634 19.307C24.2634 18.7458 24.7183 18.2909 25.2796 18.2909H28.2955C27.8041 17.6134 26.9796 17.0789 25.9699 16.5241C25.4781 16.2538 25.2985 15.6502 25.5688 15.1584C25.8388 14.6659 26.457 14.487 26.9488 14.7573C28.3958 15.5523 30.8234 17.1907 30.8234 19.3209ZM3.80965 20.3233C4.95927 19.4589 6.88524 18.4827 8.97853 17.7595L11.2934 19.1635C11.7256 19.4254 12.2672 19.4254 12.6987 19.1635L15.0139 17.7595C17.1075 18.4827 19.0331 19.4589 20.1831 20.3233H3.80965ZM15.2563 14.985C14.8841 14.8674 14.4786 14.9152 14.1443 15.1177L11.9965 16.4205L9.84866 15.1177C9.514 14.9152 9.10855 14.8671 8.73664 14.985C6.68704 15.635 0 18.0385 0 21.6781C0 22.4263 0.60665 23.033 1.35489 23.033H22.6381C23.3863 23.033 23.993 22.4263 23.993 21.6781C23.993 18.0385 17.3059 15.635 15.2563 14.985ZM11.9964 2.70973C14.4524 2.70973 16.4506 4.70548 16.4506 7.1585C16.4506 9.61185 14.4524 11.6076 11.9964 11.6076C9.54031 11.6076 7.54185 9.61185 7.54185 7.1585C7.54185 4.70548 9.54031 2.70973 11.9964 2.70973ZM11.9965 14.3174C15.9467 14.3174 19.1605 11.106 19.1605 7.15854C19.1605 3.21142 15.9467 0 11.9965 0C8.04601 0 4.83223 3.21142 4.83223 7.15854C4.83223 11.106 8.04601 14.3174 11.9965 14.3174Z" fill="#3639A4"/>
</svg>
