<svg width="37" height="36" viewBox="0 0 37 36" fill="none" xmlns="http://www.w3.org/2000/svg">
<path d="M19.7622 19.3538L26.3937 15.9308C26.5988 15.8094 26.7766 15.6507 26.917 15.4638C27.0573 15.2769 27.1574 15.0655 27.2115 14.8417C27.2656 14.618 27.2726 14.3863 27.2322 14.1599C27.1917 13.9336 27.1046 13.7171 26.9758 13.5228C26.7175 13.1296 26.3056 12.8498 25.8304 12.7448C25.3552 12.6398 24.8555 12.7182 24.4411 12.9628L17.8095 16.3858C17.6038 16.5067 17.4253 16.665 17.2843 16.8516C17.1432 17.0383 17.0424 17.2495 16.9876 17.4733C16.9328 17.6971 16.9252 17.929 16.9651 18.1556C17.005 18.3822 17.0916 18.5991 17.2201 18.7938C17.3473 18.9902 17.5143 19.1606 17.7113 19.2952C17.9084 19.4298 18.1316 19.5259 18.368 19.578C18.6045 19.6301 18.8494 19.6371 19.0887 19.5986C19.3281 19.5601 19.5569 19.4769 19.7622 19.3538Z" fill="#45DBE6"/>
<path d="M18.4211 0.0197754C14.7777 0.0197754 11.2162 1.04613 8.18687 2.96906C5.15755 4.89198 2.79647 7.62511 1.40223 10.8228C0.00798153 14.0205 -0.356817 17.5392 0.353964 20.9339C1.06474 24.3285 2.81918 27.4467 5.39541 29.8941C7.97164 32.3416 11.254 34.0083 14.8273 34.6835C18.4006 35.3588 22.1045 35.0122 25.4705 33.6877C28.8365 32.3631 31.7135 30.1201 33.7376 27.2423C35.7617 24.3644 36.8421 20.9809 36.8421 17.5198C36.8421 12.8785 34.9013 8.42729 31.4467 5.14541C27.9921 1.86352 23.3066 0.0197754 18.4211 0.0197754V0.0197754ZM18.4211 31.5198C15.5064 31.5198 12.6572 30.6987 10.2337 29.1604C7.81025 27.622 5.92139 25.4355 4.80599 22.8773C3.6906 20.3192 3.39876 17.5042 3.96738 14.7885C4.53601 12.0728 5.93956 9.57822 8.00054 7.62028C10.0615 5.66235 12.6874 4.32897 15.546 3.78878C18.4047 3.24859 21.3678 3.52584 24.0606 4.58546C26.7534 5.64509 29.055 7.4395 30.6743 9.74179C32.2936 12.0441 33.1579 14.7508 33.1579 17.5198C33.1579 21.2328 31.6053 24.7938 28.8416 27.4193C26.0779 30.0448 22.3295 31.5198 18.4211 31.5198Z" fill="#2A434B"/>
<path d="M12.3939 9.60978C12.0311 9.31565 11.5624 9.16666 11.0863 9.19414C10.6103 9.22162 10.164 9.42344 9.84137 9.75713C9.51875 10.0908 9.34494 10.5304 9.3565 10.9833C9.36806 11.4363 9.56409 11.8673 9.90336 12.1858L17.5444 19.1858C17.7205 19.3511 17.9299 19.481 18.16 19.5677C18.3901 19.6544 18.6363 19.6961 18.8838 19.6904C19.1313 19.6847 19.375 19.6317 19.6004 19.5345C19.8259 19.4373 20.0283 19.2979 20.1958 19.1247C20.3633 18.9515 20.4923 18.748 20.5751 18.5264C20.6579 18.3047 20.6928 18.0695 20.6778 17.8348C20.6628 17.6 20.5981 17.3706 20.4877 17.1601C20.3772 16.9496 20.2232 16.7625 20.0349 16.6098L12.3939 9.60978Z" fill="#45DBE6"/>
</svg>
