<svg width="35" height="36" viewBox="0 0 35 36" fill="none" xmlns="http://www.w3.org/2000/svg">
<path d="M34.895 15.6158C34.8431 15.1729 34.6293 14.7648 34.2945 14.4701C33.9598 14.1754 33.5279 14.015 33.082 14.0198C32.9114 14.0188 32.746 13.9612 32.6117 13.8561C32.4774 13.7509 32.3818 13.6041 32.34 13.4388C31.9975 12.2166 31.5061 11.0411 30.877 9.93879C30.7897 9.79147 30.754 9.61925 30.7756 9.44937C30.7971 9.27949 30.8747 9.12165 30.996 9.00079C31.338 8.65332 31.5313 8.18634 31.535 7.69879C31.5369 7.29694 31.401 6.90658 31.15 6.59279C30.793 6.15179 30.45 5.73179 30.023 5.32579L29.722 5.02479C29.316 4.62579 28.896 4.25479 28.455 3.89779C28.1046 3.62351 27.6657 3.48763 27.2216 3.51603C26.7776 3.54443 26.3595 3.73511 26.047 4.05179C25.9041 4.19494 25.7102 4.27551 25.508 4.27579C25.3682 4.27573 25.2307 4.23956 25.109 4.17079C24.0066 3.54164 22.8312 3.05029 21.609 2.70779C21.4337 2.67036 21.277 2.57298 21.1659 2.43243C21.0547 2.29188 20.996 2.11695 21 1.93779C21.0009 1.49008 20.8392 1.05727 20.545 0.71979C20.2527 0.385408 19.8455 0.173044 19.404 0.12479C18.1385 -0.0151889 16.8615 -0.0151889 15.596 0.12479C15.1531 0.17662 14.745 0.390492 14.4503 0.725221C14.1556 1.05995 13.9952 1.49187 14 1.93779C13.999 2.10835 13.9414 2.27376 13.8363 2.40805C13.7311 2.54235 13.5843 2.63793 13.419 2.67979C12.1968 3.02229 11.0213 3.51364 9.91898 4.14279C9.77166 4.23008 9.59945 4.26577 9.42957 4.24422C9.25969 4.22267 9.10184 4.1451 8.98098 4.02379C8.80402 3.85545 8.59522 3.72416 8.36683 3.63761C8.13844 3.55106 7.89506 3.51101 7.65098 3.51979C7.24951 3.52009 6.85986 3.65573 6.54498 3.90479C6.10398 4.26179 5.68398 4.60479 5.27798 5.03179L4.97698 5.33279C4.57798 5.70379 4.19998 6.12379 3.84998 6.56479C3.57717 6.91573 3.44221 7.35438 3.47058 7.79798C3.49895 8.24158 3.68868 8.65946 4.00398 8.97279C4.14714 9.11567 4.22771 9.30954 4.22798 9.51179C4.22792 9.65161 4.19175 9.78905 4.12298 9.91079C3.49383 11.0131 3.00249 12.1886 2.65998 13.4108C2.62354 13.5813 2.53029 13.7344 2.3955 13.8451C2.2607 13.9557 2.09235 14.0173 1.91798 14.0198C1.47027 14.0189 1.03746 14.1806 0.699984 14.4748C0.365603 14.7671 0.153238 15.1743 0.104984 15.6158C-0.0349948 16.8813 -0.0349948 18.1583 0.104984 19.4238C0.156814 19.8667 0.370686 20.2748 0.705415 20.5695C1.04014 20.8641 1.47206 21.0245 1.91798 21.0198C2.08855 21.0208 2.25395 21.0784 2.38825 21.1835C2.52254 21.2887 2.61812 21.4354 2.65998 21.6008C3.00249 22.823 3.49383 23.9984 4.12298 25.1008C4.21027 25.2481 4.24596 25.4203 4.22441 25.5902C4.20286 25.7601 4.1253 25.9179 4.00398 26.0388C3.83565 26.2157 3.70435 26.4245 3.61781 26.6529C3.53126 26.8813 3.4912 27.1247 3.49998 27.3688C3.50029 27.7703 3.63592 28.1599 3.88498 28.4748C4.24198 28.9158 4.58498 29.3358 5.01198 29.7418L5.31298 30.0428C5.71898 30.4418 6.13898 30.8128 6.57998 31.1698C6.93092 31.4426 7.36957 31.5776 7.81317 31.5492C8.25677 31.5208 8.67466 31.3311 8.98798 31.0158C9.13086 30.8726 9.32473 30.7921 9.52698 30.7918C9.6668 30.7918 9.80424 30.828 9.92598 30.8968C11.0283 31.5259 12.2038 32.0173 13.426 32.3598C13.59 32.403 13.7352 32.4991 13.839 32.6333C13.9428 32.7675 13.9994 32.9321 14 33.1018C13.9991 33.5495 14.1608 33.9823 14.455 34.3198C14.7473 34.6542 15.1545 34.8665 15.596 34.9148C16.8615 35.0548 18.1385 35.0548 19.404 34.9148C19.8469 34.863 20.255 34.6491 20.5497 34.3144C20.8443 33.9796 21.0047 33.5477 21 33.1018C21.001 32.9312 21.0586 32.7658 21.1637 32.6315C21.2689 32.4972 21.4156 32.4016 21.581 32.3598C22.8032 32.0173 23.9786 31.5259 25.081 30.8968C25.2283 30.8095 25.4005 30.7738 25.5704 30.7954C25.7403 30.8169 25.8981 30.8945 26.019 31.0158C26.3664 31.3578 26.8334 31.5511 27.321 31.5548C27.7228 31.5567 28.1132 31.4208 28.427 31.1698C28.868 30.8128 29.288 30.4698 29.694 30.0428L29.995 29.7418C30.394 29.3358 30.765 28.9158 31.122 28.4748C31.3963 28.1244 31.5321 27.6855 31.5037 27.2414C31.4753 26.7974 31.2847 26.3793 30.968 26.0668C30.8248 25.9239 30.7443 25.73 30.744 25.5278C30.744 25.388 30.7802 25.2505 30.849 25.1288C31.4781 24.0264 31.9695 22.851 32.312 21.6288C32.3494 21.4535 32.4468 21.2968 32.5873 21.1857C32.7279 21.0745 32.9028 21.0158 33.082 21.0198C33.5297 21.0207 33.9625 20.859 34.3 20.5648C34.6344 20.2725 34.8467 19.8653 34.895 19.4238C35.035 18.1583 35.035 16.8813 34.895 15.6158ZM17.5 30.1198C15.0079 30.1198 12.5719 29.3808 10.4998 27.9963C8.42774 26.6118 6.81277 24.6439 5.8591 22.3416C4.90544 20.0392 4.65592 17.5058 5.14209 15.0616C5.62826 12.6175 6.8283 10.3724 8.59044 8.61024C10.3526 6.8481 12.5977 5.64807 15.0418 5.16189C17.486 4.67572 20.0194 4.92524 22.3218 5.87891C24.6241 6.83257 26.592 8.44755 27.9765 10.5196C29.361 12.5917 30.1 15.0277 30.1 17.5198C30.1 20.8615 28.7725 24.0664 26.4095 26.4293C24.0466 28.7923 20.8417 30.1198 17.5 30.1198Z" fill="#77869E"/>
<path d="M17.4999 11.9197C18.6075 11.9197 19.6902 12.2482 20.6111 12.8635C21.532 13.4788 22.2498 14.3534 22.6736 15.3767C23.0975 16.4 23.2084 17.5259 22.9923 18.6122C22.7762 19.6985 22.2429 20.6964 21.4597 21.4795C20.6765 22.2627 19.6787 22.7961 18.5924 23.0121C17.5061 23.2282 16.3801 23.1173 15.3569 22.6935C14.3336 22.2696 13.459 21.5518 12.8437 20.6309C12.2283 19.71 11.8999 18.6273 11.8999 17.5197C11.8999 16.0345 12.4899 14.6101 13.5401 13.5599C14.5903 12.5097 16.0147 11.9197 17.4999 11.9197ZM17.4999 8.41974C15.7001 8.41974 13.9407 8.95344 12.4442 9.95337C10.9477 10.9533 9.78136 12.3745 9.0926 14.0373C8.40385 15.7001 8.22363 17.5298 8.57476 19.2951C8.92589 21.0603 9.79258 22.6817 11.0652 23.9544C12.3379 25.2271 13.9594 26.0938 15.7246 26.4449C17.4898 26.796 19.3195 26.6158 20.9823 25.927C22.6451 25.2383 24.0664 24.0719 25.0663 22.5754C26.0662 21.0789 26.5999 19.3195 26.5999 17.5197C26.5999 16.3247 26.3645 15.1414 25.9072 14.0373C25.4499 12.9333 24.7796 11.9301 23.9346 11.0851C23.0896 10.2401 22.0864 9.56975 20.9823 9.11243C19.8783 8.65512 18.6949 8.41974 17.4999 8.41974Z" fill="#45DBE6"/>
</svg>
