<svg width="32" height="36" viewBox="0 0 32 36" fill="none" xmlns="http://www.w3.org/2000/svg">
<path d="M31.9802 1.77188C31.9802 1.30719 31.8008 0.861537 31.4816 0.532954C31.1624 0.204371 30.7295 0.0197754 30.278 0.0197754C29.8266 0.0197754 29.3937 0.204371 29.0745 0.532954C28.7552 0.861537 28.5759 1.30719 28.5759 1.77188V4.70139C25.4277 1.70555 21.2972 0.0429647 17.0099 0.0459323C12.7225 0.0488999 8.59416 1.7172 5.4499 4.7174C2.30565 7.7176 0.377111 11.8287 0.0497276 16.229C-0.277656 20.6294 1.02023 24.9948 3.684 28.4529C3.82437 28.6324 3.99771 28.7816 4.19412 28.8921C4.39053 29.0026 4.60617 29.0722 4.82871 29.097C5.05126 29.1217 5.27635 29.1011 5.49115 29.0363C5.70595 28.9714 5.90624 28.8637 6.08059 28.7192C6.25494 28.5747 6.39994 28.3963 6.5073 28.1941C6.61466 27.9919 6.68228 27.77 6.70631 27.5409C6.73033 27.3118 6.71029 27.0801 6.64732 26.859C6.58435 26.6379 6.47969 26.4317 6.33932 26.2523C4.20045 23.4781 3.16109 19.9733 3.43016 16.4425C3.69924 12.9117 5.25681 9.61665 7.78976 7.21974C10.3227 4.82282 13.6432 3.50176 17.0838 3.52213C20.5244 3.5425 23.8299 4.90279 26.3359 7.32955L22.9725 7.02818C22.5211 6.98636 22.072 7.13085 21.7241 7.42986C21.3761 7.72887 21.1578 8.15791 21.1172 8.6226C21.0766 9.08728 21.2169 9.54955 21.5074 9.90771C21.7979 10.2659 22.2147 10.4906 22.6661 10.5324L30.1555 11.2332H30.5776L30.741 11.1982L30.8976 11.1491L31.0542 11.079L31.1972 11.002L31.3334 10.9038L31.4559 10.7987C31.4968 10.7637 31.5308 10.7216 31.5717 10.6796L31.6397 10.5324L31.7283 10.3922L31.81 10.238L31.8712 10.0839C31.8902 10.0312 31.9062 9.97732 31.9189 9.92266C31.9368 9.86341 31.9482 9.80229 31.9529 9.74044C31.9561 9.71016 31.9561 9.67961 31.9529 9.64933V9.56523V9.48814L31.9802 1.77188ZM14.0465 31.2773C13.9365 31.2185 13.8199 31.1737 13.6993 31.1441C12.7376 30.897 11.8058 30.5397 10.9214 30.0788C10.5061 29.8686 10.0976 29.6303 9.70272 29.378L9.55293 29.2869C9.16253 29.0887 8.7132 29.052 8.29733 29.1844C7.88146 29.3168 7.53066 29.6081 7.31704 29.9985C7.10343 30.3889 7.04324 30.8487 7.14885 31.2834C7.25446 31.7181 7.51784 32.0946 7.88485 32.3356C8.27974 32.5949 8.68144 32.8331 9.10357 33.0364H9.99549L10.0704 33.0714C10.9502 33.472 11.8612 33.7956 12.7938 34.0386C13.1997 34.1405 13.6278 34.0851 13.9966 33.8831C14.3654 33.6811 14.6491 33.3465 14.7938 32.943C14.9385 32.5396 14.9339 32.0955 14.7811 31.6953C14.6282 31.2951 14.3377 30.9667 13.9648 30.7727L14.0465 31.2773Z" fill="#2A434B"/>
<path d="M21.3256 31.3123C20.9684 31.1251 20.5579 31.0754 20.1682 31.1722C19.4614 31.3485 18.7418 31.4657 18.0167 31.5226C17.6455 31.5525 17.2942 31.7068 17.0164 31.9618C16.7386 32.2169 16.5497 32.5587 16.4786 32.9348C16.4075 33.311 16.4582 33.7007 16.6229 34.0444C16.7875 34.388 17.0571 34.6667 17.3903 34.8376C17.6621 34.9772 17.9658 35.0378 18.2686 35.0128C19.1862 34.9432 20.097 34.7979 20.992 34.5782C21.4279 34.4685 21.8041 34.1861 22.0387 33.7923C22.2733 33.3986 22.3473 32.9254 22.2448 32.4757C22.1861 32.2233 22.073 31.9876 21.9139 31.7863C21.7548 31.5849 21.5537 31.4229 21.3256 31.3123ZM26.8541 28.6702C26.5733 28.5266 26.2593 28.4656 25.947 28.4941C25.6346 28.5225 25.3359 28.6392 25.0839 28.8314C24.7911 29.0486 24.4848 29.2589 24.1784 29.4551C23.7962 29.7009 23.5238 30.0922 23.4206 30.5437C23.3173 30.9952 23.3914 31.4705 23.6269 31.866C23.8645 32.2608 24.2446 32.5424 24.6838 32.6489C25.123 32.7553 25.5852 32.6779 25.969 32.4337C26.3571 32.1884 26.7316 31.9291 27.0992 31.6487C27.3324 31.47 27.5175 31.233 27.6369 30.9601C27.7563 30.6872 27.8061 30.3875 27.7815 30.0893C27.757 29.7911 27.6589 29.5042 27.4966 29.2559C27.3344 29.0076 27.1132 28.806 26.8541 28.6702ZM30.4831 25.1589C30.2037 24.9657 29.8749 24.862 29.5382 24.861C29.2016 24.8601 28.8723 24.9619 28.5919 25.1536C28.3114 25.3453 28.0925 25.6183 27.9628 25.9381C27.8332 26.2579 27.7985 26.61 27.8632 26.9501C27.928 27.2901 28.0892 27.6028 28.3265 27.8485C28.5639 28.0942 28.8667 28.262 29.1967 28.3306C29.5266 28.3991 29.869 28.3655 30.1803 28.2338C30.4917 28.1022 30.7582 27.8784 30.946 27.5909C31.1962 27.2046 31.2879 26.7323 31.2012 26.2767C31.1145 25.8212 30.8563 25.4194 30.4831 25.1589Z" fill="#45DBE6"/>
</svg>
