<svg width="683" height="602" viewBox="0 0 683 602" fill="none" xmlns="http://www.w3.org/2000/svg">
<path opacity="0.5" d="M324.897 602C504.15 602 649.463 580.179 649.463 553.262C649.463 526.344 504.15 504.523 324.897 504.523C145.644 504.523 0.331055 526.344 0.331055 553.262C0.331055 580.179 145.644 602 324.897 602Z" fill="#F8F8F8"/>
<path d="M486.709 312.249L322.877 272.779V581.648L486.709 538.751V312.249Z" fill="#F3F5F8"/>
<path opacity="0.17" d="M159.046 310.88L322.877 271.418V581.648L159.046 539.61V310.88Z" fill="#838D9D"/>
<path d="M321.509 274.148L407.797 202.424L571.621 244.47L485.34 313.61L321.509 274.148Z" fill="#EDF0F3"/>
<path d="M76.353 246.69L160.415 313.61L324.238 274.148L241.043 203.793L76.353 246.69Z" fill="#F5F8FB"/>
<path d="M159.046 312.249V539.61L322.877 581.648L325.089 356.004L159.046 312.249Z" fill="#F4F6FA"/>
<path d="M486.709 538.751L322.877 581.648V356.004L486.709 312.249V538.751Z" fill="#EDF1F8"/>
<path opacity="0.1" d="M156.904 430.218L248.682 453.383L322.452 393.324V356.429L158.62 315.25L156.904 430.218Z" fill="#C1C1C1"/>
<path opacity="0.1" d="M487.992 430.218L396.214 453.383L322.452 393.324V356.429L486.276 315.25L487.992 430.218Z" fill="#919191"/>
<path d="M254.343 308.691L260.692 307.422C260.692 307.422 255.356 313.394 254.343 313.773C254.248 315.042 254.248 316.316 254.343 317.586C242.149 369.942 197.176 346.815 197.176 346.815C213.561 347.194 214.961 340.465 214.961 340.465C205.434 339.065 203.524 332.839 203.524 332.839C204.379 333.289 205.369 333.408 206.307 333.174C207.244 332.94 208.062 332.369 208.605 331.57C198.312 328.902 199.712 318.862 199.712 318.862C201.491 320.409 204.282 321.02 205.937 321.275C204.792 319.875 195.111 308.312 200.98 302.341C200.98 302.341 208.094 315.049 226.769 316.194L228.037 315.938C227.821 315.024 227.735 314.084 227.782 313.146C227.782 309.607 229.187 306.214 231.688 303.712C234.19 301.209 237.583 299.804 241.12 299.804C250.013 299.804 251.946 304.885 251.946 304.885L258.295 301.072C258.155 301.064 257.521 307.422 254.343 308.691Z" fill="#3639A4"/>
<path d="M324.758 328.387L329.026 327.536C329.026 327.536 325.438 331.551 324.758 331.806C324.694 332.658 324.694 333.514 324.758 334.366C316.561 369.559 286.334 354.012 286.334 354.012C297.353 354.267 298.289 349.743 298.289 349.743C291.887 348.807 290.603 344.614 290.603 344.614C291.177 344.919 291.844 345.001 292.475 344.843C293.105 344.686 293.656 344.302 294.021 343.764C287.108 341.969 288.043 335.255 288.043 335.255C289.276 336.146 290.716 336.706 292.227 336.88C291.453 335.944 284.966 328.17 288.894 324.156C288.894 324.156 293.673 332.664 306.231 333.438L307.081 333.268C306.936 332.652 306.879 332.019 306.911 331.388C306.911 329.011 307.855 326.73 309.536 325.049C311.217 323.368 313.496 322.424 315.873 322.424C321.85 322.424 323.134 325.842 323.134 325.842L327.403 323.282C327.325 323.267 326.892 327.536 324.758 328.387Z" fill="#45DBE6"/>
<path d="M159.046 312.249L74.9922 381.745L238.816 422.924L322.877 356.004L159.046 312.249Z" fill="#F6F8FB"/>
<path d="M396.057 322.733L401.367 321.863C401.367 321.863 396.761 326.665 395.903 326.955C395.786 328.006 395.747 329.064 395.788 330.121C384.128 373.242 347.448 352.729 347.448 352.729C361.048 353.52 362.394 347.986 362.394 347.986C354.514 346.505 353.148 341.31 353.148 341.31C353.845 341.708 354.664 341.835 355.449 341.668C356.233 341.5 356.929 341.05 357.403 340.402C348.96 337.909 350.388 329.591 350.388 329.591C351.821 330.914 354.123 331.521 355.484 331.778C354.577 330.586 346.884 320.694 351.921 315.909C351.921 315.909 357.459 326.665 372.929 328.166L373.99 327.991C373.836 327.227 373.79 326.445 373.854 325.667C373.905 324.212 374.242 322.781 374.845 321.456C375.449 320.131 376.308 318.938 377.373 317.945C378.439 316.952 379.689 316.179 381.053 315.669C382.417 315.159 383.868 314.923 385.323 314.975C392.716 315.236 394.143 319.507 394.143 319.507L399.53 316.526C399.442 316.515 398.731 321.765 396.057 322.733Z" fill="#C8F5F8"/>
<path d="M486.709 312.249L571.621 381.745L408.648 422.924L322.877 356.004L486.709 312.249Z" fill="#EDF0F3"/>
<path opacity="0.07" d="M486.709 312.249L571.621 381.745L408.648 422.924L322.877 356.004L486.709 312.249Z" fill="#B3C4DD"/>
<path d="M381.221 101.591L387.553 100.397C387.553 100.397 382.181 106.284 381.162 106.651C381.054 107.913 381.041 109.181 381.122 110.444C368.428 162.391 323.942 138.908 323.942 138.908C340.236 139.463 341.699 132.776 341.699 132.776C332.237 131.282 330.41 125.075 330.41 125.075C331.254 125.542 332.242 125.677 333.181 125.453C334.119 125.229 334.94 124.662 335.482 123.863C325.264 121.125 326.776 111.121 326.776 111.121C328.526 112.655 331.303 113.319 332.947 113.575C331.826 112.17 322.344 100.564 328.224 94.693C328.224 94.693 335.167 107.412 353.729 108.734L354.994 108.496C354.789 107.584 354.714 106.647 354.771 105.714C354.789 103.971 355.151 102.248 355.835 100.644C356.519 99.0407 357.512 97.5876 358.758 96.368C360.003 95.1483 361.477 94.1861 363.095 93.5362C364.712 92.8863 366.442 92.5615 368.185 92.5804C377.029 92.6761 378.871 97.7501 378.871 97.7501L385.233 94.0256C385.092 94.0438 384.393 100.359 381.221 101.591Z" fill="#45DBE6"/>
<path d="M110.778 135.357L117.096 134.096C117.096 134.096 111.791 140.036 110.778 140.415C110.684 141.677 110.684 142.944 110.778 144.205C98.6459 196.283 53.9126 173.28 53.9126 173.28C70.213 173.659 71.6049 166.961 71.6049 166.961C62.1246 165.569 60.2302 159.373 60.2302 159.373C61.0785 159.832 62.0674 159.956 63.003 159.723C63.9386 159.49 64.7533 158.915 65.2873 158.112C55.0261 155.467 56.418 145.505 56.418 145.505C58.1887 147.052 60.9648 147.655 62.6041 147.91C61.4674 146.518 51.8634 135.017 57.6784 129.076C57.6784 129.076 64.7537 141.715 83.3353 142.852L84.5957 142.597C84.3796 141.685 84.2937 140.748 84.3405 139.812C84.3415 138.068 84.6863 136.341 85.355 134.73C86.0238 133.119 87.0034 131.656 88.2379 130.424C89.4724 129.192 90.9376 128.215 92.5497 127.55C94.1617 126.885 95.8891 126.544 97.6329 126.547C106.479 126.547 108.374 131.606 108.374 131.606L114.691 127.816C114.544 127.808 113.918 134.127 110.778 135.357Z" fill="#3639A4"/>
<path d="M672.354 22.9796L682.661 20.9145C682.661 20.9145 674.001 30.606 672.354 31.2248C672.2 33.2845 672.2 35.3528 672.354 37.4125C652.558 122.378 579.562 84.8416 579.562 84.8416C606.155 85.4604 608.428 74.5312 608.428 74.5312C592.963 72.265 589.87 62.1558 589.87 62.1558C591.257 62.8862 592.865 63.0794 594.386 62.6984C595.906 62.3174 597.233 61.3889 598.113 60.0906C581.41 55.7592 583.684 39.47 583.684 39.47C586.568 41.9451 591.107 42.9738 593.782 43.3914C591.927 41.1252 576.26 22.3531 585.74 12.6616C585.74 12.6616 597.285 33.2822 627.589 35.1385L629.654 34.7286C629.304 33.2421 629.166 31.7135 629.244 30.1883C629.244 24.4445 631.525 18.936 635.586 14.8745C639.646 10.813 645.153 8.53125 650.896 8.53125C665.325 8.53125 668.418 16.7764 668.418 16.7764L678.725 10.5887C678.54 10.6041 677.511 20.8835 672.354 22.9796Z" fill="#45DBE6"/>
<path d="M503.891 5.97891L508.159 5.12809C508.159 5.12809 504.571 9.14239 503.891 9.39764C503.827 10.2498 503.827 11.1056 503.891 11.9578C495.694 47.1506 465.467 31.6039 465.467 31.6039C476.486 31.8591 477.422 27.3343 477.422 27.3343C471.019 26.3985 469.736 22.2063 469.736 22.2063C470.31 22.5108 470.977 22.5924 471.607 22.4353C472.238 22.2783 472.789 21.8937 473.154 21.3554C466.241 19.561 467.176 12.8473 467.176 12.8473C468.409 13.7382 469.849 14.2975 471.36 14.4716C470.586 13.5357 464.099 5.76234 468.027 1.74804C468.027 1.74804 472.806 10.2562 485.363 11.0297L486.214 10.8595C486.069 10.2442 486.012 9.61136 486.044 8.97996C486.042 7.80078 486.272 6.63277 486.722 5.54286C487.172 4.45295 487.833 3.46254 488.666 2.62837C489.499 1.7942 490.489 1.13266 491.578 0.681638C492.667 0.230619 493.835 -0.00101583 495.014 3.34862e-06C500.991 3.34862e-06 502.275 3.41873 502.275 3.41873L506.543 0.858553C506.45 0.850818 506.025 5.1281 503.891 5.97891Z" fill="#45DBE6"/>
<path opacity="0.3" d="M310.057 176.799L314.325 175.949C314.325 175.949 310.737 179.963 310.057 180.218C309.993 181.07 309.993 181.926 310.057 182.778C301.86 217.971 271.633 202.424 271.633 202.424C282.652 202.68 283.588 198.155 283.588 198.155C277.185 197.219 275.902 193.027 275.902 193.027C276.476 193.331 277.143 193.413 277.773 193.256C278.404 193.099 278.955 192.714 279.32 192.176C272.407 190.381 273.342 183.668 273.342 183.668C274.575 184.559 276.015 185.118 277.526 185.292C276.752 184.356 270.265 176.583 274.193 172.568C274.193 172.568 278.972 181.077 291.529 181.85L292.38 181.68C292.235 181.065 292.178 180.432 292.21 179.8C292.21 177.423 293.154 175.143 294.835 173.462C296.516 171.78 298.795 170.836 301.172 170.836C307.149 170.836 308.433 174.255 308.433 174.255L312.701 171.694C312.601 171.71 312.191 175.949 310.057 176.799Z" fill="#45DBE6"/>
<path opacity="0.3" d="M476.533 97.3721L480.801 96.5212C480.801 96.5212 477.252 100.551 476.533 100.783C476.469 101.635 476.469 102.491 476.533 103.343C468.336 138.536 438.109 122.989 438.109 122.989C449.128 123.245 450.064 118.72 450.064 118.72C443.661 117.784 442.378 113.592 442.378 113.592C442.952 113.896 443.619 113.978 444.25 113.821C444.88 113.664 445.431 113.279 445.796 112.741C438.883 110.946 439.818 104.233 439.818 104.233C441.051 105.124 442.491 105.683 444.002 105.857C443.228 104.921 436.741 97.1477 440.669 93.1335C440.669 93.1335 445.448 101.642 458.005 102.415L458.856 102.245C458.711 101.63 458.654 100.997 458.686 100.365C458.686 97.9878 459.63 95.7077 461.311 94.0265C462.992 92.3454 465.271 91.4009 467.648 91.4009C473.625 91.4009 474.909 94.8196 474.909 94.8196L479.177 92.2594C479.131 92.244 478.698 96.5135 476.533 97.3721Z" fill="#45DBE6"/>
<path d="M395.959 240.363L404.836 238.584C404.836 238.584 397.374 246.937 395.959 247.463C395.826 249.237 395.826 251.019 395.959 252.792C378.908 325.986 316.034 293.655 316.034 293.655C338.946 294.188 340.902 284.775 340.902 284.775C327.579 282.818 324.919 274.117 324.919 274.117C326.115 274.747 327.501 274.915 328.812 274.586C330.123 274.258 331.267 273.458 332.025 272.338C317.643 268.61 319.591 254.548 319.591 254.548C322.081 256.683 325.986 257.565 328.29 257.921C326.69 255.964 313.196 239.798 321.331 231.452C321.331 231.452 331.275 249.242 357.388 250.789L359.167 250.433C358.865 249.155 358.745 247.84 358.811 246.527C358.81 244.077 359.292 241.651 360.229 239.387C361.166 237.123 362.54 235.066 364.272 233.333C366.004 231.601 368.06 230.227 370.324 229.289C372.587 228.352 375.013 227.87 377.462 227.871C389.896 227.871 392.556 234.98 392.556 234.98L401.464 229.72C401.287 229.72 400.397 238.592 395.959 240.363Z" fill="#3639A4"/>
<path d="M333.108 20.4967L337.345 19.6459C337.345 19.6459 333.757 23.6602 333.077 23.9155C333.013 24.7677 333.013 25.6234 333.077 26.4756C324.88 61.6684 294.653 46.1217 294.653 46.1217C305.672 46.377 306.608 41.8522 306.608 41.8522C300.205 40.9163 298.922 36.7241 298.922 36.7241C299.496 37.0286 300.163 37.1102 300.793 36.9532C301.424 36.7961 301.975 36.4116 302.34 35.8733C295.427 34.0788 296.362 27.3651 296.362 27.3651C297.595 28.256 299.035 28.8153 300.546 28.9894C299.772 28.0535 293.285 20.2802 297.213 16.2659C297.213 16.2659 301.992 24.774 314.549 25.5475L315.4 25.3773C315.255 24.762 315.198 24.1292 315.23 23.4978C315.228 22.3186 315.458 21.1506 315.908 20.0607C316.358 18.9708 317.019 17.9804 317.852 17.1462C318.685 16.312 319.675 15.6505 320.764 15.1995C321.853 14.7484 323.021 14.5168 324.2 14.5178C330.177 14.5178 331.461 17.9366 331.461 17.9366L335.729 15.3764C335.675 15.3764 335.25 19.6459 333.108 20.4967Z" fill="#3639A4"/>
<path d="M202.465 115.308L206.733 114.458C206.733 114.458 203.145 118.472 202.465 118.727C202.401 119.579 202.401 120.435 202.465 121.287C194.268 156.48 164.042 140.933 164.042 140.933C175.061 141.189 175.996 136.664 175.996 136.664C169.594 135.728 168.31 131.536 168.31 131.536C168.884 131.84 169.551 131.922 170.182 131.765C170.812 131.608 171.363 131.223 171.728 130.685C164.815 128.891 165.75 122.177 165.75 122.177C166.983 123.068 168.423 123.627 169.934 123.801C169.161 122.865 162.673 115.092 166.601 111.078C166.601 111.078 171.38 119.586 183.938 120.359L184.788 120.189C184.643 119.574 184.586 118.941 184.618 118.309C184.618 115.932 185.562 113.652 187.243 111.971C188.924 110.289 191.203 109.345 193.58 109.345C199.557 109.345 200.841 112.764 200.841 112.764L205.11 110.204C205.024 110.18 204.599 114.473 202.465 115.308Z" fill="#3639A4"/>
<path opacity="0.3" d="M166.601 53.8101L170.869 52.9593C170.869 52.9593 167.281 56.9736 166.601 57.2288C166.537 58.0811 166.537 58.9368 166.601 59.789C158.404 94.9818 128.177 79.4351 128.177 79.4351C139.196 79.6903 140.132 75.1656 140.132 75.1656C133.729 74.2297 132.446 70.0375 132.446 70.0375C133.02 70.342 133.687 70.4236 134.317 70.2666C134.948 70.1095 135.499 69.7249 135.863 69.1867C128.951 67.3922 129.886 60.6785 129.886 60.6785C131.119 61.5694 132.559 62.1287 134.07 62.3028C133.296 61.3669 126.809 53.5935 130.737 49.5793C130.737 49.5793 135.516 58.0874 148.073 58.8609L148.924 58.6907C148.779 58.0754 148.722 57.4426 148.754 56.8112C148.754 54.4336 149.698 52.1535 151.379 50.4723C153.059 48.7912 155.339 47.8467 157.716 47.8467C163.693 47.8467 164.977 51.2654 164.977 51.2654L169.245 48.7052C169.16 48.682 168.774 52.9593 166.601 53.8101Z" fill="#45DBE6"/>
<path d="M566.053 128.937L574.737 127.197C574.737 127.197 567.422 135.388 566.03 135.906C565.9 137.646 565.9 139.394 566.03 141.135C549.305 212.92 487.645 181.208 487.645 181.208C510.139 181.765 512.056 172.483 512.056 172.483C498.988 170.565 496.382 162.026 496.382 162.026C497.555 162.636 498.91 162.795 500.192 162.475C501.474 162.154 502.594 161.375 503.342 160.286C489.23 156.627 491.147 142.859 491.147 142.859C493.583 144.948 497.419 145.822 499.653 146.17C498.107 144.252 484.845 128.38 492.856 120.205C492.856 120.205 502.615 137.631 528.218 139.193L529.958 138.845C529.658 137.579 529.541 136.277 529.61 134.978C529.61 130.126 531.536 125.474 534.966 122.043C538.395 118.613 543.047 116.685 547.897 116.685C560.092 116.685 562.705 123.647 562.705 123.647L571.412 118.418C571.281 118.48 570.407 127.197 566.053 128.937Z" fill="#45DBE6"/>
<path d="M220.227 198.975L228.934 197.234C228.934 197.234 221.618 205.426 220.227 205.944C220.096 207.684 220.096 209.432 220.227 211.172C203.501 282.958 141.841 251.246 141.841 251.246C164.312 251.772 166.23 242.537 166.23 242.537C153.161 240.618 150.555 232.079 150.555 232.079C151.728 232.689 153.083 232.848 154.365 232.528C155.647 232.207 156.767 231.429 157.515 230.339C143.403 226.68 145.321 212.913 145.321 212.913C147.756 215.001 151.592 215.875 153.826 216.223C152.28 214.305 139.018 198.433 147.029 190.258C147.029 190.258 156.788 207.684 182.391 209.246L184.131 208.898C183.831 207.632 183.714 206.33 183.783 205.031C183.783 200.18 185.709 195.527 189.139 192.096C192.569 188.666 197.22 186.739 202.07 186.739C214.265 186.739 216.878 193.7 216.878 193.7L225.585 188.471C225.454 188.518 224.58 197.234 220.227 198.975Z" fill="#45DBE6"/>
</svg>
