<svg width="30" height="24" viewBox="0 0 30 24" fill="none" xmlns="http://www.w3.org/2000/svg">
<path d="M0 1.89474C0 0.848302 0.848303 0 1.89474 0H27.1579C28.2043 0 29.0526 0.848302 29.0526 1.89474C29.0526 2.94117 28.2043 3.78947 27.1579 3.78947H1.89474C0.848304 3.78947 0 2.94117 0 1.89474Z" fill="#3639A4"/>
<path d="M0 12C0 10.9535 0.848303 10.1052 1.89474 10.1052H27.1579C28.2043 10.1052 29.0526 10.9535 29.0526 12C29.0526 13.0464 28.2043 13.8947 27.1579 13.8947H1.89474C0.848304 13.8947 0 13.0464 0 12Z" fill="#3639A4"/>
<path d="M0 22.1054C0 21.059 0.848303 20.2107 1.89474 20.2107H27.1579C28.2043 20.2107 29.0526 21.059 29.0526 22.1054C29.0526 23.1519 28.2043 24.0002 27.1579 24.0002H1.89474C0.848304 24.0002 0 23.1519 0 22.1054Z" fill="#3639A4"/>
</svg>
