<svg width="18" height="18" viewBox="0 0 18 18" fill="none" xmlns="http://www.w3.org/2000/svg">
<path fill-rule="evenodd" clip-rule="evenodd" d="M17.5439 15.3408C18.1521 15.949 18.1521 16.9356 17.5439 17.5438C17.2396 17.848 16.8412 18 16.4424 18C16.0436 18 15.6452 17.848 15.3409 17.5438L9 11.2029L2.65909 17.5438C2.35482 17.848 1.95639 18 1.55762 18C1.15885 18 0.760421 17.848 0.456149 17.5438C-0.15205 16.9356 -0.15205 15.949 0.456149 15.3408L6.79706 8.99996L0.456149 2.65908C-0.15205 2.05088 -0.15205 1.06434 0.456149 0.456146C1.06469 -0.152049 2.05055 -0.152049 2.65909 0.456146L9 6.79702L15.3409 0.456146C15.9495 -0.152049 16.9353 -0.152049 17.5439 0.456146C18.1521 1.06434 18.1521 2.05088 17.5439 2.65908L11.2029 8.99996L17.5439 15.3408Z" fill="#3639A4"/>
</svg>
