<svg width="17" height="16" viewBox="0 0 17 16" fill="none" xmlns="http://www.w3.org/2000/svg">
<path fill-rule="evenodd" clip-rule="evenodd" d="M1.8336 14.1608C2.63441 13.3133 4.54993 12.3694 6.15063 11.8115L7.88079 13.283C8.15202 13.5137 8.55052 13.5137 8.82175 13.283L10.5519 11.8115C12.1526 12.3694 14.0681 13.3133 14.8689 14.1608H1.8336ZM10.6144 10.3012C10.3755 10.2246 10.1142 10.2772 9.92324 10.4397L8.35121 11.7764L6.77937 10.4397C6.58838 10.2772 6.32713 10.2246 6.08821 10.3012C5.07155 10.6254 0 12.3708 0 14.8869C0 15.2879 0.325153 15.6131 0.726192 15.6131H15.9762C16.3773 15.6131 16.7024 15.2879 16.7024 14.8869C16.7024 12.3708 11.6309 10.6254 10.6144 10.3012ZM8.35134 1.45252C10.246 1.45252 11.7873 3.00348 11.7873 4.9101C11.7873 6.81708 10.246 8.36841 8.35134 8.36841C6.45689 8.36841 4.91554 6.81708 4.91554 4.9101C4.91554 3.00348 6.45689 1.45252 8.35134 1.45252ZM8.35121 9.82066C11.0466 9.82066 13.2396 7.61776 13.2396 4.90997C13.2396 2.20254 11.0466 0 8.35121 0C5.65594 0 3.46302 2.20254 3.46302 4.90997C3.46302 7.61776 5.65594 9.82066 8.35121 9.82066Z" fill="white"/>
</svg>
