<svg width="21" height="16" viewBox="0 0 21 16" fill="none" xmlns="http://www.w3.org/2000/svg">
<path d="M10.8447 9.92024L15.4647 6.18643C15.5816 6.11358 15.683 6.01834 15.763 5.9062C15.843 5.79407 15.9 5.66723 15.9309 5.53298C15.9617 5.39873 15.9657 5.25971 15.9426 5.12391C15.9196 4.98811 15.8699 4.85819 15.7965 4.74163C15.6493 4.50572 15.4145 4.33785 15.1436 4.27485C14.8728 4.21186 14.588 4.2589 14.3517 4.40563L9.73175 8.13943C9.61451 8.21195 9.51276 8.30694 9.43236 8.41892C9.35196 8.53091 9.29449 8.65768 9.26327 8.79196C9.23204 8.92623 9.22767 9.06535 9.25041 9.20132C9.27314 9.33729 9.32254 9.46742 9.39575 9.58424C9.46827 9.70205 9.56345 9.8043 9.67577 9.88507C9.78809 9.96584 9.91532 10.0235 10.0501 10.0548C10.1849 10.086 10.3245 10.0902 10.4609 10.0671C10.5973 10.044 10.7278 9.99411 10.8447 9.92024Z" fill="#77869E"/>
<path d="M10.8448 8.13943L6.22478 4.40563C5.98856 4.2589 5.70376 4.21186 5.4329 4.27485C5.16203 4.33785 4.92722 4.50572 4.77998 4.74163C4.70658 4.85819 4.65693 4.98811 4.63389 5.12391C4.61084 5.25971 4.61484 5.39873 4.64567 5.53298C4.6765 5.66723 4.73355 5.79407 4.81354 5.9062C4.89353 6.01834 4.99488 6.11358 5.11178 6.18643L9.73178 9.92024C9.96741 10.0523 10.2449 10.0885 10.5065 10.0213C10.7681 9.95408 10.9938 9.78862 11.1366 9.55932C11.2793 9.33001 11.3282 9.0545 11.2731 8.79006C11.218 8.52562 11.0631 8.2926 10.8406 8.13943H10.8448Z" fill="#77869E"/>
<path d="M17.5481 -0.000244141H3.45289C2.53726 -0.000244141 1.65912 0.36349 1.01167 1.01094C0.364222 1.65839 0.000488281 2.53652 0.000488281 3.45216L0.000488281 11.6674C0.000488281 12.583 0.364222 13.4611 1.01167 14.1086C1.65912 14.756 2.53726 15.1198 3.45289 15.1198H17.5481C18.4637 15.1198 19.3419 14.756 19.9893 14.1086C20.6368 13.4611 21.0005 12.583 21.0005 11.6674V3.45216C21.0005 2.53652 20.6368 1.65839 19.9893 1.01094C19.3419 0.36349 18.4637 -0.000244141 17.5481 -0.000244141V-0.000244141ZM18.9005 11.6674C18.9005 12.026 18.758 12.37 18.5044 12.6236C18.2508 12.8773 17.9068 13.0198 17.5481 13.0198H3.45289C3.09421 13.0198 2.75022 12.8773 2.4966 12.6236C2.24297 12.37 2.10049 12.026 2.10049 11.6674V3.45216C2.10049 3.09348 2.24297 2.74949 2.4966 2.49586C2.75022 2.24224 3.09421 2.09976 3.45289 2.09976H17.5481C17.9068 2.09976 18.2508 2.24224 18.5044 2.49586C18.758 2.74949 18.9005 3.09348 18.9005 3.45216V11.6674Z" fill="#77869E"/>
</svg>
