<svg width="34" height="34" viewBox="0 0 34 34" fill="none" xmlns="http://www.w3.org/2000/svg">
<path d="M16.9231 33.8462C26.2694 33.8462 33.8462 26.2694 33.8462 16.9231C33.8462 7.57672 26.2694 0 16.9231 0C7.57672 0 0 7.57672 0 16.9231C0 26.2694 7.57672 33.8462 16.9231 33.8462Z" fill="#45DBE6"/>
<path d="M27.2883 12.1623C26.5631 12.4839 25.783 12.7014 24.9649 12.7985C25.8002 12.298 26.4412 11.5061 26.7438 10.561C25.9622 11.0247 25.0961 11.361 24.1751 11.5424C23.4372 10.7565 22.3859 10.2654 21.2217 10.2654C18.9882 10.2654 17.1766 12.0769 17.1766 14.3105C17.1766 14.6275 17.2125 14.9361 17.2819 15.2324C13.9201 15.0637 10.9393 13.4534 8.94407 11.0054C8.59595 11.6027 8.39624 12.298 8.39624 13.0392C8.39624 14.4423 9.1109 15.681 10.1957 16.4062C9.53293 16.3854 8.90878 16.2035 8.36366 15.8997C8.36336 15.9169 8.36336 15.9341 8.36336 15.951C8.36336 17.9109 9.75828 19.5457 11.6084 19.917C11.2693 20.0099 10.9113 20.0591 10.5429 20.0591C10.2817 20.0591 10.0286 20.0341 9.78181 19.987C10.2965 21.5937 11.79 22.7633 13.5605 22.7961C12.1759 23.8813 10.4319 24.5277 8.53622 24.5277C8.21041 24.5277 7.88763 24.5087 7.57178 24.471C9.36098 25.6192 11.4878 26.2886 13.772 26.2886C21.2124 26.2886 25.2813 20.1249 25.2813 14.779C25.2813 14.6037 25.2774 14.429 25.2695 14.2559C26.0605 13.6857 26.7462 12.9735 27.2883 12.1623Z" fill="white"/>
</svg>
